<svg width="79" height="79" viewBox="0 0 79 79" fill="none" xmlns="http://www.w3.org/2000/svg">
<g clip-path="url(#clip0_1_1500)">
<path d="M60.481 55.8806C59.4024 55.4061 58.2445 55.3281 57.1768 55.5995V39.4105C57.1768 38.5609 56.4877 37.8718 55.6381 37.8718H17.6464C16.7966 37.8718 16.1077 38.5609 16.1077 39.4105V56.1096C14.9745 56.7463 13.9352 57.5374 13.0303 58.4583V57.736C13.0303 56.8863 12.3414 56.1973 11.4916 56.1973H1.53871C0.688882 56.1973 0 56.8863 0 57.736V77.2434C0 78.093 0.688882 78.7821 1.53871 78.7821H40.6159C48.951 78.7821 56.6404 74.2541 60.6832 66.9652L62.8805 63.0036C63.5724 61.7561 63.7083 60.2649 63.2528 58.9127C62.7972 57.5606 61.7871 56.4553 60.481 55.8806ZM41.0197 40.9493V46.1392L37.3615 44.5129C36.9693 44.3384 36.5221 44.336 36.1278 44.5057L32.2647 46.1693V40.9493H41.0197ZM19.1851 40.9493H29.1873V48.5073C29.1873 49.0249 29.4476 49.508 29.88 49.7927C30.1349 49.9606 30.4296 50.046 30.726 50.046C30.9323 50.046 31.1394 50.0044 31.3345 49.9206L36.7265 47.5985L41.9332 49.9133C42.4094 50.1251 42.9601 50.0812 43.3967 49.7975C43.8335 49.5137 44.0971 49.0283 44.0971 48.5073V40.9493H54.0993V57.8433L49.2052 64.5016C48.3736 65.633 47.2337 66.4838 45.9491 66.9758C46.106 66.4853 46.1914 65.9632 46.1914 65.4214C46.1914 62.6024 43.8978 60.3086 41.0786 60.3086L33.8434 60.3084C31.4075 56.6072 27.2505 54.3436 22.7851 54.3436C21.5538 54.3436 20.344 54.5156 19.185 54.8372V40.9493H19.1851ZM3.07743 59.2747H9.95286V75.7047H3.07743V59.2747ZM60.1893 61.5109L57.992 65.4725C54.4912 71.784 47.8331 75.7047 40.6159 75.7047H13.0303V64.0243C14.4942 60.125 18.4678 57.4212 22.7853 57.4212C26.4479 57.4212 29.8407 59.4064 31.6397 62.6022C31.9123 63.0864 32.4249 63.3862 32.9805 63.3862H41.0786C42.2009 63.3862 43.114 64.2992 43.114 65.4216C43.114 66.5439 42.2009 67.4571 41.0786 67.4571H31.4855C30.6356 67.4571 29.9468 68.1462 29.9468 68.9959C29.9468 69.8455 30.6356 70.5346 31.4855 70.5346L43.3636 70.5353C46.636 70.5353 49.7465 68.9612 51.6846 66.3245L56.8135 59.3466C57.3748 58.5826 58.3728 58.3152 59.2413 58.6976C59.7646 58.9279 60.1536 59.3532 60.3361 59.8951C60.519 60.4369 60.4667 61.0109 60.1893 61.5109Z" fill="#FAB529"/>
<path d="M77.2435 0H38.1663C31.3709 0 25.0323 2.94618 20.6628 8.10764H9.8478C8.99796 8.10764 8.30908 8.79667 8.30908 9.64635V33.2362C8.30908 34.0859 8.99796 34.7749 9.8478 34.7749H25.5427C26.3925 34.7749 27.0814 34.0859 27.0814 33.2362C27.0814 32.3865 26.3925 31.6975 25.5427 31.6975H19.0291C18.3918 27.7959 15.2947 24.7111 11.3865 24.0941V18.7886C15.2947 18.1716 18.3918 15.0868 19.0291 11.1852H39.3662C38.1269 11.5908 37.1041 12.4374 36.4749 13.5864C36.0976 14.2754 35.8887 15.0252 35.8514 15.7874C34.9782 15.3361 33.989 15.0794 32.9404 15.0794C29.4324 15.0794 26.5784 17.9334 26.5784 21.4414C26.5784 24.9493 29.4322 27.8033 32.9404 27.8033C36.4485 27.8033 39.3023 24.9493 39.3023 21.4414C39.3023 21.2472 39.2922 21.0555 39.2751 20.8657C40.2479 21.207 41.3316 21.26 42.3942 20.9494L49.3387 18.9193C50.8537 20.2064 52.62 21.1182 54.4942 21.6195V24.094C50.586 24.711 47.4889 27.7958 46.8516 31.6974H39.3911C38.5413 31.6974 37.8524 32.3864 37.8524 33.2361C37.8524 34.0857 38.5413 34.7748 39.3911 34.7748H56.0328C56.8824 34.7748 57.5715 34.0857 57.5715 33.2361V22.0633C57.6887 22.0664 57.806 22.071 57.9235 22.071C59.1605 22.071 60.4076 21.8973 61.6261 21.5411C63.1293 21.1016 64.5189 20.4133 65.7517 19.5067V21.0459C65.7517 21.8956 66.4408 22.5846 67.2904 22.5846H77.2435C78.0931 22.5846 78.7822 21.8956 78.7822 21.0459V1.53871C78.7822 0.689036 78.0931 0 77.2435 0V0ZM49.9905 31.6975C50.542 29.4965 52.2864 27.7649 54.494 27.2306V31.6975H49.9905ZM15.89 31.6975H11.3865V27.2306C13.5941 27.7649 15.3387 29.4965 15.89 31.6975ZM11.3865 15.652V11.1851H15.89C15.3387 13.386 13.5941 15.1177 11.3865 15.652ZM32.9404 24.7257C31.1293 24.7257 29.6558 23.2524 29.6558 21.4412C29.6558 19.63 31.1293 18.1568 32.9404 18.1568C34.7514 18.1568 36.2249 19.6301 36.2249 21.4414C36.2249 23.2526 34.7514 24.7257 32.9404 24.7257ZM60.7628 18.5874C57.2474 19.6151 53.4336 18.6618 50.8105 16.0994C50.4128 15.7112 49.8367 15.5675 49.3035 15.7232L41.5307 17.9957C40.4525 18.3112 39.3206 17.6904 39.0058 16.6132C38.8532 16.0914 38.913 15.5415 39.1741 15.0646C39.4353 14.5878 39.8664 14.2411 40.3883 14.0886L53.9213 10.1321C54.7372 9.89362 55.2051 9.03902 54.9666 8.2235C54.7281 7.40768 53.8732 6.94022 53.058 7.17826L49.8682 8.11087C49.8494 8.11025 49.831 8.10795 49.8119 8.10795H24.945C28.5544 4.87926 33.2207 3.07743 38.1663 3.07743H65.7519V15.2951C64.456 16.8737 62.7375 18.0102 60.7628 18.5874ZM75.7048 19.5074H68.8293V3.07743H75.7048V19.5074Z" fill="#FAB529"/>
<path d="M32.4669 34.7637C33.3167 34.7637 34.0057 34.0748 34.0057 33.225C34.0057 32.3752 33.3167 31.6863 32.4669 31.6863C31.6171 31.6863 30.9282 32.3752 30.9282 33.225C30.9282 34.0748 31.6171 34.7637 32.4669 34.7637Z" fill="#FAB529"/>
</g>
<defs>
<clipPath id="clip0_1_1500">
<rect width="78.7822" height="78.7822" fill="white"/>
</clipPath>
</defs>
</svg>
