<svg width="77" height="77" viewBox="0 0 77 77" fill="none" xmlns="http://www.w3.org/2000/svg">
<g clip-path="url(#clip0_1_1474)">
<path d="M61.9366 66.4725L59.0869 57.9222C58.091 54.9371 55.5503 52.7337 52.4532 52.1699L44.2266 50.673V50.0354C45.6582 49.2045 46.9039 48.0929 47.8961 46.777H50.3814C52.4175 46.777 54.0743 45.1201 54.0743 43.0841V28.3124C54.0743 19.4888 46.8953 12.3098 38.0717 12.3098C29.2481 12.3098 22.0691 19.4888 22.0691 28.3124V36.9292C22.0691 39.3026 23.7568 41.2881 25.9947 41.751C26.6852 45.2888 28.8961 48.2825 31.9169 50.0354V50.673L23.689 52.1699C20.5932 52.7337 18.0512 54.9371 17.0566 57.9222L16.5642 59.4006L12.3715 55.2079C11.8914 54.7279 11.8914 53.9462 12.3715 53.4661L17.2338 48.605L8.10741 39.4786L2.61236 44.9736C0.985014 46.601 0.0888672 48.765 0.0888672 51.0669C0.0888672 53.3689 0.985014 55.5317 2.61236 57.159L19.2489 73.7956C20.8763 75.4229 23.0403 76.3203 25.3422 76.3203C27.6442 76.3203 29.807 75.4229 31.3962 73.8325L37.3922 68.3387L35.5224 66.4725H61.9366ZM51.6124 43.0841C51.6124 43.7636 51.0597 44.3151 50.3814 44.3151H49.3462C49.7032 43.5014 49.974 42.6434 50.1488 41.751C50.6756 41.6414 51.1606 41.4321 51.6124 41.1687V43.0841ZM50.3814 39.049V34.8095C51.1139 35.2367 51.6124 36.022 51.6124 36.9292C51.6124 37.8365 51.1139 38.6218 50.3814 39.049ZM25.762 39.049C25.0296 38.6218 24.531 37.8365 24.531 36.9292C24.531 36.022 25.0296 35.2367 25.762 34.8095V39.049ZM25.762 30.7744V32.1802C25.3238 32.2946 24.9126 32.467 24.531 32.6898V28.3124C24.531 20.8466 30.6059 14.7718 38.0717 14.7718C45.5376 14.7718 51.6124 20.8466 51.6124 28.3124V32.6898C51.2308 32.467 50.8197 32.2934 50.3814 32.1802V30.7744H49.1505C45.5105 30.7744 42.0884 29.3563 39.5132 26.7823L38.0717 25.3409L36.6302 26.7823C34.0551 29.3563 30.633 30.7744 26.993 30.7744H25.762ZM28.2239 39.3912V33.1895C31.9206 32.9113 35.3673 31.3862 38.0717 28.8147C40.7762 31.3862 44.2229 32.9126 47.9195 33.1895V39.3912C47.9195 41.1859 47.4296 42.865 46.5876 44.3151H38.0717V46.777H44.5639C42.8282 48.3046 40.5595 49.239 38.0717 49.239C32.6419 49.239 28.2239 44.821 28.2239 39.3912ZM41.7646 51.1334V51.1913L38.0717 54.8842L34.3788 51.1913V51.1334C35.5458 51.5002 36.7854 51.7009 38.0717 51.7009C39.3581 51.7009 40.5977 51.5002 41.7646 51.1334ZM19.3905 58.7002C20.1008 56.5682 21.9164 54.9937 24.1285 54.59L32.733 53.0266L38.0717 58.3654L43.4092 53.0279L52.0125 54.5912C54.2245 54.995 56.0402 56.5682 56.7505 58.7014L58.5218 64.0106H33.0604L28.2658 59.216L22.9382 64.0352C22.4741 64.5018 21.6629 64.5018 21.1976 64.0352L18.5091 61.3468L19.3905 58.7002ZM8.10618 42.9598L13.7514 48.605L12.4146 49.9418L6.76935 44.2966L8.10618 42.9598ZM29.6913 72.0575C28.5292 73.217 26.9831 73.8584 25.3398 73.8584C23.6964 73.8584 22.1503 73.217 20.9871 72.055L4.35049 55.4197C3.18845 54.2576 2.54835 52.7115 2.54835 51.0682C2.54835 49.4236 3.18845 47.8775 4.35049 46.7155L5.02752 46.0384L10.6728 51.6837L10.6284 51.728C9.18944 53.1682 9.18944 55.5107 10.6284 56.951L19.4557 65.7783C20.1537 66.475 21.0806 66.8603 22.0679 66.8603C23.0551 66.8603 23.982 66.4762 24.6344 65.8214L24.7268 65.7389L30.3978 71.41L29.6913 72.0575ZM32.2148 69.7432L26.556 64.0845L28.1821 62.6147L33.831 68.2636L32.2148 69.7432Z" fill="#FAB529"/>
<path d="M72.5393 0H55.3057C53.2697 0 51.6128 1.65689 51.6128 3.69291V13.5407C51.6128 15.5767 53.2697 17.2336 55.3057 17.2336H58.5936L57.3208 24.6576L69.1997 17.2336H72.5393C74.5753 17.2336 76.2322 15.5767 76.2322 13.5407V3.69291C76.2322 1.65689 74.5753 0 72.5393 0ZM73.7703 13.5407C73.7703 14.2189 73.2176 14.7717 72.5393 14.7717H68.4931L60.6752 19.6574L61.5135 14.7717H55.3057C54.6274 14.7717 54.0747 14.2189 54.0747 13.5407V3.69291C54.0747 3.01465 54.6274 2.46194 55.3057 2.46194H72.5393C73.2176 2.46194 73.7703 3.01465 73.7703 3.69291V13.5407Z" fill="#FAB529"/>
<path d="M71.3083 4.92395H56.5366V7.38589H71.3083V4.92395Z" fill="#FAB529"/>
<path d="M66.3844 9.84778H56.5366V12.3097H66.3844V9.84778Z" fill="#FAB529"/>
<path d="M71.3081 9.84778H68.8462V12.3097H71.3081V9.84778Z" fill="#FAB529"/>
<path d="M38.072 3.69287C21.9881 3.69287 8.13352 14.8184 4.5317 30.3372L2.19901 26.4486L0.0878906 27.7153L4.41475 34.9251L11.6246 30.5982L10.3579 28.4871L7.02195 30.4887C10.5105 16.2919 23.2769 6.15481 38.072 6.15481C41.3057 6.15481 44.4964 6.63489 47.5554 7.58274L48.2841 5.23159C44.9888 4.20988 41.5532 3.69287 38.072 3.69287Z" fill="#FAB529"/>
<path d="M75.634 27.2562L68.4242 22.9293L64.0985 30.1404L66.2097 31.407L68.3639 27.8163C69.4976 31.1337 70.0774 34.6039 70.0774 38.1601C70.0774 45.4807 67.5416 52.6376 62.939 58.3111L64.8507 59.8622C69.809 53.7516 72.5393 46.0433 72.5393 38.1601C72.5393 34.3946 71.9324 30.7177 70.7495 27.1971L74.3673 29.3673L75.634 27.2562Z" fill="#FAB529"/>
</g>
<defs>
<clipPath id="clip0_1_1474">
<rect width="76.3202" height="76.3202" fill="white"/>
</clipPath>
</defs>
</svg>
