<svg width="240" height="116" viewBox="0 0 240 116" fill="none" xmlns="http://www.w3.org/2000/svg">
<path d="M238.5 49.8876C238.5 51.8799 237.772 54.4115 236.231 57.3803C234.699 60.3305 232.415 63.6156 229.432 67.0868C223.467 74.0282 214.793 81.6151 204.032 88.6468C182.507 102.712 152.787 114.455 120 114.455C87.2128 114.455 57.4935 102.712 35.9677 88.6468C25.2066 81.6151 16.5327 74.0282 10.5679 67.0868C7.58496 63.6156 5.30085 60.3305 3.76927 57.3803C2.22806 54.4115 1.5 51.8799 1.5 49.8876C1.5 45.896 4.44106 40.8307 10.4421 35.3462C16.371 29.9276 25.0175 24.3506 35.7821 19.3217C57.3033 9.26771 87.087 1.5 120 1.5C152.913 1.5 182.697 9.26771 204.218 19.3217C214.982 24.3506 223.629 29.9276 229.558 35.3462C235.559 40.8307 238.5 45.896 238.5 49.8876Z" fill="white" stroke="#FAC251" stroke-width="3"/>
<circle cx="104.053" cy="57.5878" r="20.251" transform="rotate(1.53426 104.053 57.5878)" fill="white" stroke="#FAC251" stroke-width="2.5"/>
<circle cx="139.302" cy="58.5319" r="20.251" transform="rotate(1.53426 139.302 58.5319)" fill="white" stroke="#FAC251" stroke-width="2.5"/>
</svg>
