<svg width="79" height="79" viewBox="0 0 79 79" fill="none" xmlns="http://www.w3.org/2000/svg">
<g clip-path="url(#clip0_1_1510)">
<path d="M16.0787 48.8408C16.7161 48.8408 17.2328 48.3241 17.2328 47.6868V31.0954C17.2328 30.4581 16.7161 29.9414 16.0787 29.9414H12.5325C11.8951 29.9414 11.3784 30.4581 11.3784 31.0954C11.3784 31.7328 11.8951 32.2495 12.5325 32.2495H14.9247V47.6866C14.9247 48.3241 15.4414 48.8408 16.0787 48.8408Z" fill="#FAB529"/>
<path d="M55.8615 48.0346C56.0074 48.0959 56.1588 48.1248 56.3076 48.1248C56.7586 48.1248 57.1868 47.8587 57.3722 47.417L63.8736 31.9252C64.1203 31.3376 63.8437 30.6611 63.2561 30.4145C62.6683 30.168 61.9921 30.4443 61.7454 31.032L55.244 46.5238C54.9974 47.1117 55.2739 47.788 55.8615 48.0346Z" fill="#FAB529"/>
<path d="M59.0899 34.0952C59.0899 31.6182 57.2835 29.6029 55.0633 29.6029C52.8431 29.6029 51.0366 31.6182 51.0366 34.0952C51.0366 36.5722 52.8431 38.5875 55.0633 38.5875C57.2835 38.5875 59.0899 36.5722 59.0899 34.0952ZM55.0633 36.2794C54.1156 36.2794 53.3447 35.2995 53.3447 34.0952C53.3447 32.8908 54.1157 31.911 55.0633 31.911C56.0108 31.911 56.7819 32.8908 56.7819 34.0952C56.7819 35.2995 56.0108 36.2794 55.0633 36.2794Z" fill="#FAB529"/>
<path d="M63.844 49.1793C66.0644 49.1793 67.8707 47.164 67.8707 44.687C67.8707 42.21 66.0643 40.1947 63.844 40.1947C61.6238 40.1947 59.8174 42.21 59.8174 44.687C59.8174 47.164 61.6237 49.1793 63.844 49.1793ZM63.844 42.5028C64.7917 42.5028 65.5626 43.4826 65.5626 44.687C65.5626 45.8913 64.7916 46.8712 63.844 46.8712C62.8965 46.8712 62.1255 45.8913 62.1255 44.687C62.1255 43.4826 62.8964 42.5028 63.844 42.5028Z" fill="#FAB529"/>
<path d="M36.207 35.5547V43.2275C36.207 46.5092 38.877 49.1792 42.1588 49.1792C45.4407 49.1792 48.1107 46.5092 48.1107 43.2275V35.5547C48.1107 32.2729 45.4407 29.6029 42.1588 29.6029C38.877 29.6029 36.207 32.2729 36.207 35.5547ZM45.8026 35.5547V43.2275C45.8026 45.2367 44.168 46.8711 42.1588 46.8711C40.1497 46.8711 38.5151 45.2366 38.5151 43.2275V35.5547C38.5151 33.5454 40.1497 31.911 42.1588 31.911C44.168 31.911 45.8026 33.5456 45.8026 35.5547Z" fill="#FAB529"/>
<path d="M20.856 35.5547V43.2275C20.856 46.5092 23.5259 49.1792 26.8077 49.1792C30.0896 49.1792 32.7596 46.5092 32.7596 43.2275V35.5547C32.7596 32.2729 30.0896 29.6029 26.8077 29.6029C23.5259 29.6029 20.856 32.2729 20.856 35.5547ZM30.4514 35.5547V43.2275C30.4514 45.2367 28.8168 46.8711 26.8075 46.8711C24.7985 46.8711 23.1639 45.2366 23.1639 43.2275V35.5547C23.1639 33.5454 24.7985 31.911 26.8075 31.911C28.8168 31.911 30.4514 33.5456 30.4514 35.5547Z" fill="#FAB529"/>
<path d="M9.7888 25.7437H68.9945C69.6319 25.7437 70.1485 25.227 70.1485 24.5897C70.1485 23.9522 69.6319 23.4356 68.9945 23.4356H61.4271C62.2528 22.3964 62.7479 21.0833 62.7479 19.6559C62.7479 19.0185 62.2313 18.5019 61.5939 18.5019C60.9566 18.5019 60.4399 19.0185 60.4399 19.6559C60.4399 21.7401 58.7442 23.4356 56.66 23.4356H51.3095C51.6391 23.1744 51.9574 22.8951 52.259 22.5935C54.3812 20.4713 55.5251 17.6024 55.3975 14.7224C55.371 14.1252 54.893 13.647 54.2956 13.6205C51.4153 13.4931 48.5465 14.6368 46.4245 16.759C45.7267 17.4568 45.1291 18.2392 44.6482 19.0845C44.3331 19.6386 44.5267 20.3431 45.0807 20.6583C45.6345 20.9734 46.3393 20.78 46.6545 20.2257C47.0332 19.5601 47.505 18.9427 48.0568 18.391C49.4392 17.0086 51.2151 16.1548 53.0571 15.961C52.8634 17.8029 52.0096 19.579 50.6272 20.9614C48.9832 22.6055 46.8066 23.4355 44.5725 23.4355H40.5457V18.9111C42.9022 16.5581 44.246 13.2646 44.246 9.78802C44.246 6.13003 42.7607 2.67269 40.1707 0.302459C39.7297 -0.101145 39.0534 -0.101145 38.6125 0.302459C36.0225 2.67254 34.5372 6.13003 34.5372 9.78802C34.5372 10.2376 34.5596 10.6914 34.6043 11.1361C34.6677 11.7705 35.2344 12.2323 35.8674 12.1696C36.5016 12.1062 36.9643 11.5408 36.9009 10.9065C36.864 10.5377 36.8454 10.1613 36.8454 9.78802C36.8454 7.16836 37.7623 4.68102 39.3917 2.80518C41.021 4.68102 41.9379 7.16836 41.9379 9.78802C41.9379 12.4078 41.0212 14.8949 39.3918 16.7707C39.0133 16.3348 38.6706 15.8627 38.3675 15.3592C38.0388 14.8133 37.3299 14.637 36.7837 14.9656C36.2376 15.2945 36.0614 16.0035 36.3902 16.5496C36.9129 17.4179 37.5335 18.2103 38.2376 18.9134V23.4353H35.5804C35.3916 20.9692 34.2919 18.5868 32.4638 16.7587C30.3416 14.6365 27.4725 13.4929 24.5926 13.6202C23.9954 13.6466 23.5172 14.1247 23.4907 14.7221C23.3632 17.6021 24.5071 20.471 26.6293 22.5932C26.9308 22.8948 27.2491 23.1739 27.5788 23.4353H22.1233C20.0391 23.4353 18.3434 21.7397 18.3434 19.6556C18.3434 19.0181 17.8267 18.5016 17.1894 18.5016C16.5521 18.5016 16.0354 19.0181 16.0354 19.6556C16.0354 21.0829 16.5304 22.3962 17.3562 23.4353H9.7888C9.15147 23.4353 8.63477 23.9519 8.63477 24.5894C8.63477 25.2269 9.15147 25.7437 9.7888 25.7437ZM25.8314 15.961C27.6733 16.1548 29.4494 17.0086 30.8318 18.391C32.2142 19.7733 33.0682 21.5493 33.2617 23.3913C31.42 23.1976 29.6438 22.3436 28.2614 20.9614C26.879 19.579 26.025 17.8029 25.8314 15.961Z" fill="#FAB529"/>
<path d="M68.9945 53.0385H9.7888C9.15147 53.0385 8.63477 53.5552 8.63477 54.1925C8.63477 54.83 9.15147 55.3465 9.7888 55.3465H17.3562C16.5305 56.3858 16.0354 57.6989 16.0354 59.1262C16.0354 59.7637 16.5521 60.2803 17.1894 60.2803C17.8267 60.2803 18.3434 59.7637 18.3434 59.1262C18.3434 57.042 20.0391 55.3465 22.1233 55.3465H27.4735C27.144 55.6078 26.8259 55.8871 26.5243 56.1887C24.4021 58.3109 23.2582 61.1798 23.3858 64.0598C23.4123 64.657 23.8903 65.1352 24.4877 65.1617C24.6331 65.1681 24.7783 65.1712 24.9236 65.1712C27.6554 65.1712 30.3439 64.0381 32.3588 62.0232C33.0566 61.3254 33.6543 60.5429 34.1351 59.6977C34.4502 59.1436 34.2567 58.439 33.7026 58.1239C33.1485 57.8088 32.4441 58.0022 32.1288 58.5564C31.7501 59.2221 31.2783 59.8394 30.7265 60.3912C29.3442 61.7736 27.5682 62.6274 25.7262 62.8211C25.9199 60.9793 26.7737 59.2032 28.1561 57.8208C29.7909 56.186 31.9863 55.3467 34.1733 55.3467H38.2376V59.8711C35.8811 62.2241 34.5373 65.5176 34.5373 68.9941C34.5373 72.6521 36.0226 76.1095 38.6126 78.4797C38.8331 78.6813 39.1124 78.7822 39.3917 78.7822C39.6709 78.7822 39.9502 78.6813 40.1707 78.4795C42.7607 76.1095 44.246 72.652 44.246 68.994C44.246 68.5444 44.2235 68.0906 44.1789 67.6459C44.1155 67.0117 43.549 66.5497 42.9158 66.6124C42.2815 66.6758 41.8188 67.2412 41.8822 67.8755C41.9192 68.2443 41.9378 68.6207 41.9378 68.994C41.9378 71.6137 41.0208 74.101 39.3915 75.9768C37.7622 74.101 36.8452 71.6137 36.8452 68.994C36.8452 66.3742 37.762 63.8872 39.3914 62.0113C39.7699 62.4472 40.1125 62.9193 40.4157 63.4228C40.7443 63.9687 41.4534 64.145 41.9995 63.8164C42.5456 63.4876 42.7217 62.7785 42.3929 62.2324C41.8702 61.3641 41.2497 60.5717 40.5455 59.8687V55.3467H43.2027C43.3915 57.8128 44.4913 60.1952 46.3194 62.0233C48.3345 64.0386 51.0226 65.1714 53.7546 65.1714C53.8997 65.1714 54.0453 65.1681 54.1905 65.1618C54.7877 65.1354 55.266 64.6573 55.2924 64.06C55.42 61.1799 54.2761 58.311 52.1539 56.1888C51.8525 55.8874 51.5344 55.608 51.2048 55.3467H56.6599C58.7441 55.3467 60.4397 57.0423 60.4397 59.1264C60.4397 59.7639 60.9564 60.2804 61.5938 60.2804C62.2311 60.2804 62.7478 59.7639 62.7478 59.1264C62.7478 57.6991 62.2528 56.3858 61.427 55.3467H68.9944C69.6317 55.3467 70.1484 54.8301 70.1484 54.1926C70.1485 53.5553 69.6319 53.0385 68.9945 53.0385ZM52.9519 62.8211C51.11 62.6274 49.3339 61.7736 47.9515 60.3912C46.5691 59.0088 45.7152 57.2328 45.5216 55.3908C47.3633 55.5846 49.1396 56.4386 50.5219 57.8208C51.9043 59.2032 52.7583 60.9793 52.9519 62.8211Z" fill="#FAB529"/>
</g>
<defs>
<clipPath id="clip0_1_1510">
<rect width="78.7822" height="78.7822" fill="white"/>
</clipPath>
</defs>
</svg>
