<svg width="79" height="79" viewBox="0 0 79 79" fill="none" xmlns="http://www.w3.org/2000/svg">
<g clip-path="url(#clip0_1_1466)">
<path d="M69.6172 78.7821C69.2922 78.7821 68.9738 78.6869 68.6948 78.4998L57.4453 70.8448L46.1959 78.4998C45.6346 78.8806 44.896 78.8773 44.3314 78.4867C43.7734 78.096 43.514 77.4001 43.6847 76.7403L47.1676 62.9928L36.6862 54.0445C36.1774 53.6079 35.9838 52.9054 36.2004 52.2719C36.4171 51.6383 36.9915 51.1952 37.6612 51.1591L51.064 50.4008L55.9091 37.1884C56.3851 35.895 58.5188 35.895 58.9914 37.1884L63.8366 50.4008L77.2394 51.1591C77.909 51.1952 78.4868 51.6383 78.7001 52.2719C78.9135 52.9054 78.7231 53.6079 78.2143 54.0445L67.733 62.9928L71.2158 76.7403C71.3865 77.4001 71.1272 78.096 70.5691 78.4867C70.2737 78.6836 69.9487 78.7821 69.6172 78.7821ZM57.4453 67.2175C57.7703 67.2175 58.0887 67.3127 58.3678 67.4998L66.9616 73.3494L64.2928 62.809C64.1385 62.205 64.3421 61.5649 64.8148 61.1579L72.9621 54.202L62.5629 53.6112C61.9097 53.5751 61.3418 53.1516 61.1153 52.5378L57.4453 42.5193L53.7721 52.5411C53.5456 53.1549 52.9777 53.5751 52.3245 53.6145L41.9253 54.2053L50.0726 61.1611C50.5486 61.5682 50.7489 62.2083 50.5946 62.8123L47.9258 73.3527L56.5197 67.5031C56.802 67.3094 57.1204 67.2175 57.4453 67.2175Z" fill="#FAB529"/>
<path d="M31.1846 78.7822C28.9689 78.7822 26.9074 77.9188 25.3777 76.3498L2.41599 53.3848C0.863321 51.8748 0 49.8133 0 47.5976C0 45.4967 0.827213 43.4418 2.26827 41.9581L39.2598 3.58787C41.4493 1.27693 44.4134 0 47.5976 0H70.5757C75.1024 0 78.7822 3.68307 78.7822 8.20647V31.1846C78.7822 34.3654 77.5019 37.3296 75.1812 39.5322L70.8613 43.6946C70.2146 44.3215 69.174 44.3084 68.5405 43.6486C67.9135 42.9954 67.9299 41.9548 68.5864 41.3278L72.9162 37.1589C74.587 35.5734 75.4996 33.4562 75.4996 31.1846V8.20647C75.4996 5.49177 73.2904 3.28259 70.5757 3.28259H47.5976C45.326 3.28259 43.2054 4.19515 41.6364 5.85614L4.62845 44.2395C3.76841 45.1225 3.28259 46.3436 3.28259 47.5976C3.28259 48.9204 3.79467 50.1448 4.72036 51.0508L27.7149 74.0454C29.5072 75.8836 32.6716 75.9263 34.4869 74.2095C35.1467 73.5858 36.1873 73.6186 36.8077 74.2784C37.4281 74.9382 37.3985 75.9755 36.7387 76.5992C35.2452 78.0075 33.2723 78.7822 31.1846 78.7822Z" fill="#FAB529"/>
<path d="M62.3691 22.9781C58.7484 22.9781 55.804 20.0337 55.804 16.413C55.804 12.7923 58.7484 9.84778 62.3691 9.84778C65.9898 9.84778 68.9343 12.7923 68.9343 16.413C68.9343 20.0337 65.9898 22.9781 62.3691 22.9781ZM62.3691 13.1304C60.5571 13.1304 59.0865 14.6043 59.0865 16.413C59.0865 18.2217 60.5571 19.6955 62.3691 19.6955C64.1811 19.6955 65.6517 18.2217 65.6517 16.413C65.6517 14.6043 64.1811 13.1304 62.3691 13.1304Z" fill="#FAB529"/>
</g>
<defs>
<clipPath id="clip0_1_1466">
<rect width="78.7822" height="78.7822" fill="white"/>
</clipPath>
</defs>
</svg>
